:version 1.10
:name ASF
:units
  mass 1
  length 1
  angle deg
:documentation
  ASF file generated by Kaydara
:root
  axis xyz
  order  tx ty tz rx ry rz
  position 0 0 0
  orientation 0 0 0
:bonedata
  begin
    id 1
    name RightUpLegDummy
    direction -0.718183 -0.695806 0.00816078
    length 4.904
    axis 0 0 0 xyz
  end
  begin
    id 2
    name RightUpLeg
    direction -0.0736652 -0.994202 0.0783343
    length 17.4976
    axis -2.72909 -3.00389 -4.00133 xyz
    dof rx ry rz
  end
  begin
    id 3
    name RightLeg
    direction -0.0389037 -0.994596 -0.0962598
    length 16.5821
    axis 3.95836 -18.5909 -4.46993 xyz
    dof rx ry rz
  end
  begin
    id 4
    name RightFoot
    direction -0.311643 -0.412678 0.855906
    length 3.77069
    axis -1.99483 -18.8351 -3.27644 xyz
    dof rx ry rz
  end
  begin
    id 5
    name RightToes
    direction -0.317852 0.0389852 0.947339
    length 3.85082
    axis -2.00228 -18.1713 -3.25211 xyz
    dof rx ry rz
  end
  begin
    id 6
    name SpineDummy
    direction 8.3039e-015 1 4.44677e-016
    length 4.6813
    axis 0 0 0 xyz
  end
  begin
    id 7
    name Spine
    direction -0.000262373 0.999988 0.00493267
    length 10.1015
    axis -0.00246081 0.00062579 0.0150362 xyz
    dof rx ry rz
  end
  begin
    id 8
    name Spine1
    direction 0 0 0
    length 0
    axis -0.00349562 0.000650293 0.0196666 xyz
    dof rx ry rz
  end
  begin
    id 9
    name HEadDummy
    direction -0.000343232 0.999999 0.00123745
    length 3.43865
    axis -0.00349562 0.000650293 0.0196666 xyz
  end
  begin
    id 10
    name HEad
    direction -0.0461221 0.980933 0.188796
    length 5.12695
    axis -0.00351404 -7.04812 0.0199272 xyz
    dof rx ry rz
  end
  begin
    id 11
    name LeftShoulder1Dummy
    direction 0.998904 -0.0399089 -0.0244534
    length 3.5433
    axis -0.00349562 0.000650293 0.0196666 xyz
  end
  begin
    id 12
    name LeftShoulder1
    direction 0.99951 1.64443e-005 0.0312999
    length 4.05031
    axis -0.00349562 0.000650293 0.0196666 xyz
    dof rx ry rz
  end
  begin
    id 13
    name LeftArm
    direction 0.984791 0.0515299 0.165927
    length 12.9126
    axis -64.823 -10.7743 5.20463 xyz
    dof rx ry rz
  end
  begin
    id 14
    name LeftForeArm
    direction 0.984968 0.0534808 0.16425
    length 10.8596
    axis -30.0462 -7.70601 1.87451 xyz
    dof rx ry rz
  end
  begin
    id 15
    name LeftHand
    direction 0.975871 0.0289682 0.216418
    length 6.62295
    axis -20.1348 -6.98077 1.86072 xyz
    dof rx ry rz
  end
  begin
    id 16
    name RightShoulderDummy
    direction -0.998877 -0.0405946 -0.0244307
    length 3.5433
    axis -0.00349562 0.000650293 0.0196666 xyz
  end
  begin
    id 17
    name RightShoulder
    direction -0.998933 -0.0249743 -0.0388558
    length 4.05031
    axis -0.0205316 -4.02113 1.41395 xyz
    dof rx ry rz
  end
  begin
    id 18
    name RightArm
    direction -0.997559 0.068664 0.0127103
    length 12.9638
    axis -67.3882 1.84188 -6.15987 xyz
    dof rx ry rz
  end
  begin
    id 19
    name RightForeArm
    direction -0.991508 0.0912848 0.0926241
    length 10.8312
    axis -22.1975 3.41087 -4.28711 xyz
    dof rx ry rz
  end
  begin
    id 20
    name RightHand
    direction -0.989262 0.0600788 0.133232
    length 6.57864
    axis -12.2911 2.17515 -4.39675 xyz
    dof rx ry rz
  end
  begin
    id 21
    name LeftUpLegDummy
    direction 0.718183 -0.695806 0.00816078
    length 4.904
    axis 0 0 0 xyz
  end
  begin
    id 22
    name LeftUpLeg
    direction 0.0831398 -0.99469 0.0606531
    length 17.4976
    axis -1.71016 2.29552 4.63832 xyz
    dof rx ry rz
  end
  begin
    id 23
    name LeftLeg
    direction 0.0498442 -0.991778 -0.117862
    length 16.5821
    axis 5.13757 15.5727 5.13348 xyz
    dof rx ry rz
  end
  begin
    id 24
    name LeftFoot
    direction 0.269026 -0.433896 0.85986
    length 3.77069
    axis -0.576502 15.6961 4.10267 xyz
    dof rx ry rz
  end
  begin
    id 25
    name LeftToes
    direction 0.277311 0.0251143 0.960452
    length 3.85048
    axis -0.576502 15.6961 4.10267 xyz
    dof rx ry rz
  end
:hierarchy
  begin
    root RightUpLegDummy SpineDummy LeftUpLegDummy
    RightUpLegDummy RightUpLeg
    RightUpLeg RightLeg
    RightLeg RightFoot
    RightFoot RightToes
    SpineDummy Spine
    Spine Spine1
    Spine1 HEadDummy LeftShoulder1Dummy RightShoulderDummy
    HEadDummy HEad
    LeftShoulder1Dummy LeftShoulder1
    LeftShoulder1 LeftArm
    LeftArm LeftForeArm
    LeftForeArm LeftHand
    RightShoulderDummy RightShoulder
    RightShoulder RightArm
    RightArm RightForeArm
    RightForeArm RightHand
    LeftUpLegDummy LeftUpLeg
    LeftUpLeg LeftLeg
    LeftLeg LeftFoot
    LeftFoot LeftToes
  end

:SAMPLES-PER-SECOND 30
:FULLY-SPECIFIED
:DEGREES
77
root  -3.75246 26.1235 82.1032 -162.902 13.3881 -176.772
RightUpLeg  -69.5925 -0.841828 7.42057
RightLeg  94.8387 18.342 -16.3876
RightFoot  -42.6118 2.58363 9.26829
RightToes  -1.16415e-010 -3.18055e-015 -2.98177e-016
Spine  34.2368 -0.646703 7.30754
Spine1  -3.56476 -1.13428 7.78177
HEad  -18.2194 3.98589 -0.60764
LeftShoulder1  -3.88251e-019 9.70628e-020 -3.87848e-018
LeftArm  -12.3257 14.3973 -39.6663
LeftForeArm  12.0492 -38.9793 9.75467
LeftHand  -3.5041 -7.38634 32.2742
RightShoulder  4.84321 9.28103 23.5243
RightArm  1.3039 -35.565 25.1983
RightForeArm  9.46327 43.8171 -26.5683
RightHand  0.00461089 -1.14863 0.389681
LeftUpLeg  -65.8125 10.0897 2.62136
LeftLeg  97.3282 -16.7697 17.0839
LeftFoot  -42.9854 -4.33116 -15.6804
LeftToes  1.69338e-011 3.79281e-011 -2.20049e-011
78
root  -3.7212 26.6222 81.6285 -162.874 14.045 -177.166
RightUpLeg  -67.5955 -0.503577 6.56108
RightLeg  93.1757 17.8461 -16.159
RightFoot  -42.7926 2.66332 9.50669
RightToes  -1.16415e-010 -3.18055e-015 -2.98177e-016
Spine  34.1342 -1.14298 8.12857
Spine1  -4.46254 -1.25202 7.44844
HEad  -17.8106 3.8382 -1.3589
LeftShoulder1  -3.88251e-019 9.70628e-020 -3.87848e-018
LeftArm  -13.2839 19.3245 -39.5372
LeftForeArm  10.6795 -38.2469 9.43481
LeftHand  -3.94054 -7.38419 36.0383
RightShoulder  4.76764 9.2069 23.2208
RightArm  1.93536 -35.8051 24.1793
RightForeArm  10.5774 45.1727 -27.9094
RightHand  -0.0887565 -0.511961 -1.89624
LeftUpLeg  -64.6674 9.58585 2.4142
LeftLeg  97.0773 -16.5152 16.3512
LeftFoot  -40.0353 -4.68886 -19.0681
LeftToes  1.69338e-011 3.79281e-011 -2.20049e-011
79
root  -3.66596 27.1372 81.1102 -163.228 14.7168 -177.817
RightUpLeg  -65.1574 -0.264051 5.46358
RightLeg  91.4509 17.3525 -15.9428
RightFoot  -43.1144 2.74672 9.70581
RightToes  -1.16415e-010 -3.18055e-015 -2.98177e-016
Spine  34.1754 -1.47656 8.60004
Spine1  -5.387 -1.29454 6.99089
HEad  -17.2589 3.47777 -2.25696
LeftShoulder1  -3.88251e-019 9.70628e-020 -3.87848e-018
LeftArm  -14.8385 24.7112 -39.8714
LeftForeArm  8.26805 -37.9307 9.21203
LeftHand  -4.24512 -7.15753 39.2619
RightShoulder  4.60294 9.05482 22.5308
RightArm  2.31541 -35.9944 23.5884
RightForeArm  10.4469 46.5556 -29.3004
RightHand  -0.201743 -0.335565 -4.47655
LeftUpLeg  -65.0703 9.0919 1.66931
LeftLeg  97.8962 -17.0635 17.5325
LeftFoot  -31.4367 -3.60799 -21.3891
LeftToes  1.69338e-011 3.79281e-011 -2.20049e-011
80
root  -3.58563 27.5951 80.5676 -163.852 15.4427 -178.544
RightUpLeg  -62.5555 0.034938 4.30475
RightLeg  89.9648 16.9315 -15.6798
RightFoot  -43.5612 2.85678 9.95337
RightToes  -1.16415e-010 -3.18055e-015 -2.98177e-016
Spine  34.0465 -1.54608 8.70521
Spine1  -5.77102 -1.32215 6.56095
HEad  -17.1069 3.07005 -3.09706
LeftShoulder1  -3.88251e-019 9.70628e-020 -3.87848e-018
LeftArm  -16.6029 30.1199 -40.4669
LeftForeArm  4.61811 -37.9927 9.05698
LeftHand  -4.53261 -7.16676 41.6596
RightShoulder  4.37863 8.82623 21.6093
RightArm  2.20819 -35.6698 23.8391
RightForeArm  8.96209 47.8134 -30.577
RightHand  -0.25717 -0.892116 -6.38864
LeftUpLeg  -67.5285 9.46672 -0.364743
LeftLeg  98.6332 -18.7693 22.7025
LeftFoot  -20.0848 -1.18386 -17.4829
LeftToes  1.69338e-011 3.79281e-011 -2.20049e-011
81
root  -3.49066 27.9523 79.9889 -164.487 16.2282 -179.198
RightUpLeg  -60.1274 0.415977 3.2595
RightLeg  88.8801 16.6322 -15.4722
RightFoot  -44.0379 3.00474 10.3192
RightToes  -1.16415e-010 -3.18055e-015 -2.98177e-016
Spine  33.6826 -1.50392 8.80026
Spine1  -5.65475 -1.30648 5.61429
HEad  -17.4393 2.69889 -3.63331
LeftShoulder1  -3.88251e-019 9.70628e-020 -3.87848e-018
LeftArm  -18.1172 35.156 -41.1669
LeftForeArm  0.419422 -38.0638 8.8749
LeftHand  -4.73436 -7.26418 43.0298
RightShoulder  4.22003 8.60035 21.0583
RightArm  1.81292 -34.6201 24.5532
RightForeArm  7.1136 48.8629 -31.672
RightHand  -0.34564 -1.07206 -8.88552
LeftUpLeg  -71.0232 10.617 -3.48184
LeftLeg  98.0061 -20.4333 28.8228
LeftFoot  -13.5487 -0.0303364 -9.08387
LeftToes  1.69338e-011 3.79281e-011 -2.20049e-011
82
root  -3.39791 28.2699 79.3752 -164.991 16.8716 -179.831
RightUpLeg  -57.9032 0.63088 2.32962
RightLeg  87.8699 16.3766 -15.5115
RightFoot  -44.4022 3.16185 10.7469
RightToes  -1.16415e-010 -3.18055e-015 -2.98177e-016
Spine  33.4718 -1.53593 8.99818
Spine1  -5.66579 -1.17699 3.84675
HEad  -17.927 2.35111 -4.03866
LeftShoulder1  -3.88251e-019 9.70628e-020 -3.87848e-018
LeftArm  -19.2133 39.8628 -41.9739
LeftForeArm  -2.86801 -37.8458 8.63897
LeftHand  -4.70353 -6.99651 43.6387
RightShoulder  4.14963 8.43731 20.9233
RightArm  1.61523 -33.3311 25.1326
RightForeArm  5.44379 49.8102 -32.7139
RightHand  -0.635373 0.0235639 -13.1597
LeftUpLeg  -74.2453 11.5206 -6.45561
LeftLeg  95.9428 -20.2107 31.4901
LeftFoot  -14.3131 -0.0723129 -3.71289
LeftToes  1.69338e-011 3.79281e-011 -2.20049e-011
83
root  -3.35057 28.5205 78.7472 -165.331 17.2169 179.758
RightUpLeg  -55.8704 0.484583 1.60846
RightLeg  87.0592 16.1667 -15.4636
RightFoot  -44.7759 3.31482 11.1453
RightToes  -1.16415e-010 -3.18055e-015 -2.98177e-016
Spine  33.6149 -1.61077 9.48332
Spine1  -6.22019 -0.965072 2.02965
HEad  -18.3662 1.99301 -4.59765
LeftShoulder1  -3.88251e-019 9.70628e-020 -3.87848e-018
LeftArm  -20.1081 44.4429 -43.0814
LeftForeArm  -4.57878 -37.263 8.36324
LeftHand  -4.55209 -6.48496 44.0733
RightShoulder  4.05031 8.29756 20.5609
RightArm  1.80118 -32.334 25.6387
RightForeArm  3.33349 50.7842 -33.8203
RightHand  -1.14508 1.57498 -18.6987
LeftUpLeg  -76.811 11.6436 -7.96826
LeftLeg  93.2118 -17.9542 28.7935
LeftFoot  -18.1892 -0.266334 -4.58819
LeftToes  1.69338e-011 3.79281e-011 -2.20049e-011
84
root  -3.34385 28.6708 78.134 -165.582 17.3901 179.459
RightUpLeg  -54.1661 0.057664 0.879842
RightLeg  86.8553 16.0841 -14.8577
RightFoot  -45.1491 3.46746 11.5329
RightToes  -1.16415e-010 -3.18055e-015 -2.98177e-016
Spine  33.9289 -1.54933 9.88214
Spine1  -6.91068 -0.738051 0.638001
HEad  -18.8779 1.60563 -5.13805
LeftShoulder1  -3.88251e-019 9.70628e-020 -3.87848e-018
LeftArm  -21.087 48.7222 -44.6323
LeftForeArm  -5.54034 -36.3649 8.02929
LeftHand  -4.47195 -6.1585 44.5191
RightShoulder  3.88412 8.13772 19.8055
RightArm  2.12427 -31.3721 26.4403
RightForeArm  0.293445 51.7665 -34.9418
RightHand  -1.639 2.33177 -24.1097
LeftUpLeg  -78.9423 11.2881 -8.45777
LeftLeg  89.1206 -15.1523 24.192
LeftFoot  -21.6413 -0.640681 -7.82113
LeftToes  1.69338e-011 3.79281e-011 -2.20049e-011
85
root  -3.35472 28.7404 77.5755 -165.886 17.6972 178.933
RightUpLeg  -53.0024 -0.380586 -0.171701
RightLeg  87.375 16.1567 -13.8829
RightFoot  -45.1583 3.61266 12.0323
RightToes  -1.16415e-010 -3.18055e-015 -2.98177e-016
Spine  34.2755 -1.38625 9.78787
Spine1  -6.9884 -0.446925 -1.02842
HEad  -19.6433 1.2195 -5.25575
LeftShoulder1  -3.88251e-019 9.70628e-020 -3.87848e-018
LeftArm  -22.2068 52.1938 -46.418
LeftForeArm  -6.4258 -35.0766 7.58804
LeftHand  -4.54726 -6.24364 44.8857
RightShoulder  3.76415 8.00716 19.2772
RightArm  2.20079 -29.8076 27.557
RightForeArm  -3.08087 52.5692 -35.8457
RightHand  -2.00272 2.4643 -28.725
LeftUpLeg  -80.5688 10.8538 -8.9473
LeftLeg  83.0527 -12.5919 21.0046
LeftFoot  -23.6749 -0.880227 -8.8539
LeftToes  1.69338e-011 3.79281e-011 -2.20049e-011
86
root  -3.40006 28.6741 77.0406 -166.355 18.3477 178.49
RightUpLeg  -52.2296 -0.651649 -1.25124
RightLeg  88.6865 16.3827 -12.9053
RightFoot  -44.8898 3.76885 12.6868
RightToes  -1.16415e-010 -3.18055e-015 -2.98177e-016
Spine  34.6086 -1.36873 9.88005
Spine1  -6.16412 0.0196015 -3.70031
HEad  -20.6515 0.948318 -4.93009
LeftShoulder1  -3.88251e-019 9.70628e-020 -3.87848e-018
LeftArm  -23.4453 54.5634 -47.9952
LeftForeArm  -6.67212 -33.1183 6.99529
LeftHand  -4.89147 -6.87814 45.5992
RightShoulder  3.74298 7.96544 19.2164
RightArm  1.78633 -27.6226 28.9074
RightForeArm  -5.74585 52.9102 -36.1508
RightHand  -2.45619 2.99704 -32.7621
LeftUpLeg  -81.2289 10.4462 -8.98672
LeftLeg  76.5585 -10.5326 18.6678
LeftFoot  -21.9612 -0.666907 -7.73683
LeftToes  1.69338e-011 3.79281e-011 -2.20049e-011
87
root  -3.49693 28.3921 76.4344 -167.033 19.2675 178.566
RightUpLeg  -51.3776 -0.774246 -2.09794
RightLeg  90.9456 16.7217 -11.6601
RightFoot  -44.9052 4.00386 13.4965
RightToes  -1.16415e-010 -3.18055e-015 -2.98177e-016
Spine  34.811 -1.56533 10.7554
Spine1  -4.63345 0.714374 -7.10066
HEad  -21.6538 0.898733 -4.56897
LeftShoulder1  -3.88251e-019 9.70628e-020 -3.87848e-018
LeftArm  -25.0174 56.0941 -49.2115
LeftForeArm  -6.07953 -30.3953 6.26277
LeftHand  -5.52017 -7.90756 47.1483
RightShoulder  3.70397 7.96318 18.9689
RightArm  0.904961 -25.3628 30.7076
RightForeArm  -7.03695 52.5367 -35.5072
RightHand  -3.11582 4.10763 -36.5115
LeftUpLeg  -81.1112 9.94694 -7.98864
LeftLeg  72.7829 -9.61149 17.102
LeftFoot  -15.7477 -0.178754 -5.31936
LeftToes  1.69338e-011 3.79281e-011 -2.20049e-011
88
root  -3.62303 27.8693 75.7196 -167.862 20.3211 178.975
RightUpLeg  -50.3688 -0.761937 -3.04968
RightLeg  94.3332 17.0539 -9.70258
RightFoot  -45.4265 4.36398 14.4914
RightToes  -1.16415e-010 -3.18055e-015 -2.98177e-016
Spine  34.7775 -1.71287 11.8672
Spine1  -2.84777 1.55564 -10.2407
HEad  -22.2868 1.06693 -4.55321
LeftShoulder1  -3.88251e-019 9.70628e-020 -3.87848e-018
LeftArm  -26.9371 57.36 -50.2965
LeftForeArm  -6.34442 -27.309 5.57608
LeftHand  -6.02198 -8.54789 48.8013
RightShoulder  3.54817 7.89508 18.0804
RightArm  -0.0953203 -23.1978 33.0913
RightForeArm  -6.62066 51.319 -33.8492
RightHand  -3.73473 4.99567 -39.811
LeftUpLeg  -81.2159 9.56117 -6.73693
LeftLeg  73.8848 -9.99867 16.9209
LeftFoot  -10.0573 0.0395938 -2.18207
LeftToes  1.69338e-011 3.79281e-011 -2.20049e-011
89
root  -3.73314 27.2015 74.9818 -168.717 21.3385 179.115
RightUpLeg  -49.5907 -0.634837 -4.49041
RightLeg  98.442 17.2415 -7.54186
RightFoot  -45.9675 4.78399 15.6436
RightToes  -1.16415e-010 -3.18055e-015 -2.98177e-016
Spine  34.6507 -1.60599 12.2272
Spine1  -1.27389 2.34313 -12.5166
HEad  -22.3916 1.34636 -4.92245
LeftShoulder1  -3.88251e-019 9.70628e-020 -3.87848e-018
LeftArm  -28.3281 58.6147 -51.3815
LeftForeArm  -9.39215 -24.255 5.24573
LeftHand  -5.94815 -8.21431 49.3362
RightShoulder  3.35705 7.75306 17.0783
RightArm  -0.721371 -20.78 35.6387
RightForeArm  -4.59788 49.3192 -31.4766
RightHand  -4.03645 5.16956 -42.1045
LeftUpLeg  -81.8386 9.55809 -6.4308
LeftLeg  78.1696 -11.145 18.0141
LeftFoot  -9.72582 -0.0224836 0.0386436
LeftToes  1.69338e-011 3.79281e-011 -2.20049e-011
90
root  -3.80107 26.5811 74.3337 -169.432 21.9072 178.726
RightUpLeg  -49.1684 -0.604491 -6.19816
RightLeg  102.14 17.3475 -6.24262
RightFoot  -46.0693 5.17939 16.908
RightToes  -1.16415e-010 -3.18055e-015 -2.98177e-016
Spine  34.6729 -1.39401 11.6346
Spine1  -0.131866 2.89639 -14.109
HEad  -22.2507 1.55515 -5.39882
LeftShoulder1  -3.88251e-019 9.70628e-020 -3.87848e-018
LeftArm  -28.6744 59.5193 -52.2376
LeftForeArm  -14.1427 -21.1685 5.11333
LeftHand  -5.52367 -7.35913 49.0397
RightShoulder  3.261 7.64516 16.6286
RightArm  -0.748436 -18.1389 37.6867
RightForeArm  -2.05028 46.8568 -28.9028
RightHand  -4.0245 4.88314 -43.0318
LeftUpLeg  -82.5673 9.51448 -7.01627
LeftLeg  82.192 -12.3245 19.4452
LeftFoot  -12.7971 -0.0387497 0.101915
LeftToes  1.69338e-011 3.79281e-011 -2.20049e-011
91
root  -3.83396 26.0842 73.7624 -169.786 21.7046 178.255
RightUpLeg  -48.6672 -0.845151 -7.59413
RightLeg  104.796 17.4721 -5.77939
RightFoot  -46.1641 5.60714 18.2682
RightToes  -1.16415e-010 -3.18055e-015 -2.98177e-016
Spine  34.7907 -1.30047 10.9626
Spine1  0.537399 3.17592 -15.4031
HEad  -22.3155 1.48247 -5.61619
LeftShoulder1  -3.88251e-019 9.70628e-020 -3.87848e-018
LeftArm  -28.1472 59.6425 -52.6585
LeftForeArm  -18.2908 -18.0193 4.97449
LeftHand  -5.25288 -6.80001 48.877
RightShoulder  3.2719 7.65897 16.6768
RightArm  -0.312937 -15.9671 38.8379
RightForeArm  -0.508502 44.4494 -26.6182
RightHand  -3.86873 4.5144 -42.9028
LeftUpLeg  -83.3145 8.9118 -7.62567
LeftLeg  84.8808 -13.2317 20.1041
LeftFoot  -14.9599 -0.0535834 -0.884546
LeftToes  1.69338e-011 3.79281e-011 -2.20049e-011
